<svg width="188" height="100" viewBox="0 0 188 100" fill="none" xmlns="http://www.w3.org/2000/svg">
<path d="M4.6875 70.125V63.1875L35.25 16.125H45.6562V62.7188H55.125V70.125H45.6562V84H37.5938V70.125H4.6875ZM13.7812 62.7188H37.5938V26.8125H36.75L13.7812 62.1562V62.7188Z" fill="#151719"/>
<path d="M96.2817 46.7005C101.156 41.9497 112.64 25.0698 112.64 25.0698C112.64 25.0698 109.588 19.4537 108.026 17.0547H84.0801C82.408 20.5864 79.742 25.235 80.1443 24.9047C80.1443 24.9047 90.6423 39.4956 96.2817 46.7005Z" fill="white" stroke="#151719" stroke-width="1.5" stroke-linecap="round" stroke-linejoin="round"/>
<path d="M102.177 25.1424C100.3 32.426 98.9036 39.3085 96.5926 46.427C94.4867 38.7973 92.8383 32.6148 90.5352 24.8828" fill="white"/>
<path d="M102.177 25.1424C100.3 32.426 98.9036 39.3085 96.5926 46.427C94.4867 38.7973 92.8383 32.6148 90.5352 24.8828" stroke="#151719" stroke-width="1.5" stroke-linecap="round" stroke-linejoin="round"/>
<path d="M107.766 17.5098C105.889 19.8538 104.012 22.1978 102.135 24.5417C100.439 22.1427 98.396 19.7515 96.5425 17.4705C94.4445 19.783 92.4884 22.2528 90.6901 24.7934C88.7972 22.3315 86.7465 19.8223 84.8535 17.3604" fill="white"/>
<path d="M107.766 17.5098C105.889 19.8538 104.012 22.1978 102.135 24.5417C100.439 22.1427 98.396 19.7515 96.5425 17.4705C94.4445 19.783 92.4884 22.2528 90.6901 24.7934C88.7972 22.3315 86.7465 19.8223 84.8535 17.3604" stroke="#151719" stroke-width="1.5" stroke-linecap="round" stroke-linejoin="round"/>
<path d="M112.641 25.1328H80.6582" stroke="#151719" stroke-width="1.5" stroke-linecap="round" stroke-linejoin="round"/>
<path d="M94.9918 83C110.97 83 136.646 79 123.631 62.0936C123.631 46.1594 110.97 33.2422 94.9919 33.2422C79.0139 33.2422 66.0612 46.1594 66.0612 62.0936C66.0612 63.4185 66.3981 63.7225 66.5715 65C55.3062 80 80.3423 83 94.9918 83Z" fill="#FF91C6"/>
<path d="M123.631 62.0936H122.881V62.3489L123.037 62.5511L123.631 62.0936ZM66.5715 65L67.1712 65.4504L67.3561 65.2042L67.3147 64.8991L66.5715 65ZM123.037 62.5511C126.224 66.6905 126.902 69.8579 126.176 72.2769C125.441 74.7218 123.193 76.6819 119.871 78.205C113.236 81.2476 102.959 82.25 94.9918 82.25V83.75C103.002 83.75 113.553 82.7524 120.496 79.5684C123.964 77.9782 126.693 75.7684 127.612 72.7083C128.539 69.6224 127.547 65.95 124.226 61.6361L123.037 62.5511ZM66.8112 62.0936C66.8112 46.5756 79.4262 33.9922 94.9919 33.9922V32.4922C78.6017 32.4922 65.3112 45.7433 65.3112 62.0936H66.8112ZM94.9919 33.9922C110.548 33.9922 122.881 46.5656 122.881 62.0936H124.381C124.381 45.7532 111.392 32.4922 94.9919 32.4922V33.9922ZM94.9918 82.25C87.6822 82.25 77.881 81.4974 71.3378 78.9269C68.0511 77.6358 65.764 75.9544 64.8923 73.8532C64.0461 71.8136 64.4305 69.0997 67.1712 65.4504L65.9718 64.5496C63.0798 68.4003 62.3693 71.6864 63.5068 74.428C64.6187 77.1081 67.3941 78.9892 70.7894 80.3231C77.6103 83.0026 87.6519 83.75 94.9918 83.75V82.25ZM67.3147 64.8991C67.2201 64.202 67.0753 63.7475 66.9765 63.3732C66.8827 63.0178 66.8112 62.6763 66.8112 62.0936H65.3112C65.3112 62.8358 65.4082 63.3088 65.5262 63.7559C65.6392 64.1843 65.7496 64.5205 65.8283 65.1009L67.3147 64.8991Z" fill="black"/>
<path d="M118.763 60.5C118.185 51.7737 112.89 44.3263 105.392 40.6842C102.237 39.1425 98.6878 38.2852 94.9413 38.2852C81.7537 38.2852 71.0664 48.9432 71.0664 62.0947V63.5" stroke="#151719" stroke-width="1.5" stroke-miterlimit="10" stroke-linecap="round"/>
<path d="M90.3842 50.9141L88.4912 59.4641L86.6061 50.9141L84.7132 59.4641L82.8281 50.9141" stroke="#151719" stroke-width="1.5" stroke-linecap="round" stroke-linejoin="round"/>
<path d="M81.6289 53.9902H91.5827" stroke="#151719" stroke-width="1.5" stroke-linecap="round" stroke-linejoin="round"/>
<path d="M107.154 50.9141L105.261 59.4641L103.376 50.9141L101.483 59.4641L99.5977 50.9141" stroke="#151719" stroke-width="1.5" stroke-linecap="round" stroke-linejoin="round"/>
<path d="M98.3984 53.9902H108.352" stroke="#151719" stroke-width="1.5" stroke-linecap="round" stroke-linejoin="round"/>
<path d="M96.3958 60.9527C96.3958 60.9527 94.5265 59.002 92.6572 60.1819C90.7958 61.3617 90.5592 64.5867 93.2172 65.4126" stroke="#151719" stroke-width="1.5" stroke-linecap="round" stroke-linejoin="round"/>
<path d="M90.9922 69.5C92.3255 68.3334 96.6922 65.7 99.4922 68.5" stroke="black" stroke-width="1.5" stroke-linecap="round"/>
<path d="M91.4922 73C91.3255 69.8333 89.6922 65.9 84.4922 65.5" stroke="black" stroke-width="1.5" stroke-linecap="round"/>
<path d="M98.9922 72C99.2417 67.0238 101.206 61.6286 108.992 61" stroke="black" stroke-width="1.5" stroke-linecap="round"/>
<path d="M124.001 62.9997C121.892 61.2862 117.87 59.9889 113.001 60.9995" stroke="black" stroke-width="1.5" stroke-linecap="round"/>
<path d="M66.0011 65.8531C67.0438 64.8553 69.001 63.0007 74.001 64" stroke="black" stroke-width="1.5" stroke-linecap="round"/>
<path d="M132.488 70.125V63.1875L163.051 16.125H173.457V62.7188H182.926V70.125H173.457V84H165.395V70.125H132.488ZM141.582 62.7188H165.395V26.8125H164.551L141.582 62.1562V62.7188Z" fill="#151719"/>
</svg>
