<svg width="126" height="181" viewBox="0 0 126 181" fill="none" xmlns="http://www.w3.org/2000/svg">
<g clip-path="url(#clip0_579_12098)">
<path d="M63.5148 62.6215C73.5196 52.8599 97.0906 18.1771 97.0906 18.1771C97.0906 18.1771 90.8255 6.63767 87.6201 1.70837L38.4706 1.70837C35.0385 8.96494 29.5667 18.5165 30.3923 17.8377C30.3923 17.8377 51.9397 47.8175 63.5148 62.6215Z" fill="white" stroke="#151719" strokeWidth="2.43099" strokeLinecap="round" strokeLinejoin="round"/>
<path d="M75.6116 18.3229C71.7587 33.2886 68.8932 47.43 64.1499 62.0563C59.8274 46.3795 56.444 33.6765 51.7168 17.7896" fill="white"/>
<path d="M75.6116 18.3229C71.7587 33.2886 68.8932 47.43 64.1499 62.0563C59.8274 46.3795 56.444 33.6765 51.7168 17.7896" stroke="#151719" strokeWidth="2.43099" strokeLinecap="round" strokeLinejoin="round"/>
<path d="M87.0874 2.64582C83.2345 7.46198 79.3815 12.2781 75.5285 17.0943C72.0479 12.165 67.855 7.25188 64.0506 2.56501C59.7443 7.31652 55.7295 12.3913 52.0384 17.6115C48.1531 12.5529 43.9439 7.39733 40.0586 2.33875" fill="white"/>
<path d="M87.0874 2.64582C83.2345 7.46198 79.3815 12.2781 75.5285 17.0943C72.0479 12.165 67.855 7.25188 64.0506 2.56501C59.7443 7.31652 55.7295 12.3913 52.0384 17.6115C48.1531 12.5529 43.9439 7.39733 40.0586 2.33875" stroke="#151719" strokeWidth="2.43099" strokeLinecap="round" strokeLinejoin="round"/>
<path d="M97.0933 18.3067L31.4473 18.3067" stroke="#151719" strokeWidth="2.43099" strokeLinecap="round" strokeLinejoin="round"/>
<path d="M54.0899 147.212H41.7539V170.937H54.0899V147.212Z" fill="#151719"/>
<path d="M52.7857 170.937H36.6939C34.9505 170.937 33.5371 172.348 33.5371 174.089V175.963C33.5371 177.704 34.9505 179.115 36.6939 179.115H52.7857C54.5292 179.115 55.9426 177.704 55.9426 175.963V174.089C55.9426 172.348 54.5292 170.937 52.7857 170.937Z" fill="white" stroke="#151719" strokeWidth="2.43099" strokeLinecap="round" strokeLinejoin="round"/>
<path d="M68.1777 170.937H80.5137V147.212H68.1777V170.937Z" fill="#151719"/>
<path d="M69.4936 179.115H85.5853C87.3288 179.115 88.7422 177.704 88.7422 175.963V174.088C88.7422 172.348 87.3288 170.937 85.5853 170.937H69.4936C67.7501 170.937 66.3367 172.348 66.3367 174.088V175.963C66.3367 177.704 67.7501 179.115 69.4936 179.115Z" fill="white" stroke="#151719" strokeWidth="2.43099" strokeLinecap="round" strokeLinejoin="round"/>
<path d="M60.8634 153.531C93.6586 153.531 120.244 126.99 120.244 94.2501C120.244 61.5102 93.6586 34.9692 60.8634 34.9692C28.0682 34.9692 1.48242 61.5102 1.48242 94.2501C1.48242 126.99 28.0682 153.531 60.8634 153.531Z" fill="#FF91C6" stroke="#151719" strokeWidth="2.43099" stroke-miterlimit="10"/>
<path d="M109.861 94.2501C109.861 121.272 87.9252 143.171 60.8574 143.171C33.7895 143.171 11.8535 121.272 11.8535 94.2501C11.8535 67.2278 33.7895 45.3289 60.8574 45.3289C68.5471 45.3289 75.8321 47.0905 82.3077 50.2582C98.6261 58.1935 109.861 74.9208 109.861 94.2501Z" fill="#FF91C6" stroke="#151719" strokeWidth="2.43099" stroke-miterlimit="10"/>
<path d="M51.4094 71.2843L47.524 88.852L43.6549 71.2843L39.7695 88.852L35.9004 71.2843" stroke="#151719" strokeWidth="2.43099" strokeLinecap="round" strokeLinejoin="round"/>
<path d="M33.4395 77.6036H53.8699" stroke="#151719" strokeWidth="2.43099" strokeLinecap="round" strokeLinejoin="round"/>
<path d="M85.8293 71.2843L81.944 88.852L78.0748 71.2843L74.1895 88.852L70.3203 71.2843" stroke="#151719" strokeWidth="2.43099" strokeLinecap="round" strokeLinejoin="round"/>
<path d="M67.8594 77.6036H88.2898" stroke="#151719" strokeWidth="2.43099" strokeLinecap="round" strokeLinejoin="round"/>
<path d="M93.5356 101.409C93.5356 101.409 83.0452 95.8337 74.5946 101.959C65.2212 108.779 67.86 120.448 67.86 120.448" fill="#FF91C6"/>
<path d="M93.5356 101.409C93.5356 101.409 83.0452 95.8337 74.5946 101.959C65.2212 108.779 67.86 120.448 67.86 120.448" stroke="#151719" strokeWidth="2.43099" stroke-miterlimit="10"/>
<path d="M88.6776 164.811C90.8955 165.345 93.2429 164.65 94.8132 162.985L117.866 138.42C120.262 135.866 120.133 131.842 117.575 129.45C115.017 127.058 110.986 127.187 108.59 129.741L95.0237 144.205L92.7572 123.308C92.3849 119.817 89.2442 117.296 85.7474 117.684C82.2506 118.056 79.7251 121.191 80.1137 124.682L83.8695 159.333C84.1447 161.805 85.8122 163.89 88.1758 164.666C88.3538 164.731 88.5319 164.779 88.6938 164.811H88.6776Z" fill="#151719"/>
<path d="M94.2588 122.29C94.2588 122.29 97.189 130.032 89.7098 132.391C83.6713 134.299 76.8234 124.747 78.2804 120.238C79.3974 116.731 84.3512 114.323 89.1917 116.375" fill="white"/>
<path d="M94.2588 122.29C94.2588 122.29 97.189 130.032 89.7098 132.391C83.6713 134.299 76.8234 124.747 78.2804 120.238C79.3974 116.731 84.3512 114.323 89.1917 116.375" stroke="#151719" strokeWidth="2.43099" strokeLinecap="round" strokeLinejoin="round"/>
<path d="M109.238 113.741C109.238 113.741 124.262 110.719 125.233 100.925C126.204 91.1469 113.318 97.159 110.145 106.096" fill="white"/>
<path d="M109.238 113.741C109.238 113.741 124.262 110.719 125.233 100.925C126.204 91.1469 113.318 97.159 110.145 106.096" stroke="#151719" strokeWidth="2.43099" strokeLinecap="round" strokeLinejoin="round"/>
<path d="M85.7637 119.592C86.3465 115.6 88.9367 112.19 92.5792 110.46C93.8581 109.846 95.3961 109.28 97.0959 108.909C99.7185 108.343 102.778 108.262 106.048 109.28C106.048 109.28 106.939 103.026 108.995 97.5471C110.743 92.9087 113.333 88.836 116.96 89.6118C124.86 91.2764 120.133 106.889 113.366 114.291C113.366 114.291 102.859 127.753 90.5556 127.317" fill="white"/>
<path d="M85.7637 119.592C86.3465 115.6 88.9367 112.19 92.5792 110.46C93.8581 109.846 95.3961 109.28 97.0959 108.909C99.7185 108.343 102.778 108.262 106.048 109.28C106.048 109.28 106.939 103.026 108.995 97.5471C110.743 92.9087 113.333 88.836 116.96 89.6118C124.86 91.2764 120.133 106.889 113.366 114.291C113.366 114.291 102.859 127.753 90.5556 127.317" stroke="#151719" strokeWidth="2.43099" strokeLinecap="round" strokeLinejoin="round"/>
<path d="M63.744 91.9068C63.744 91.9068 59.9072 87.8987 56.0705 90.3229C52.2499 92.7472 51.7642 99.3734 57.2199 101.07" stroke="#151719" strokeWidth="2.43099" strokeLinecap="round" strokeLinejoin="round"/>
<path d="M66.3379 113.741C64.46 113.563 57.2397 115.147 51.7031 113.741H66.3379Z" fill="#FF91C6"/>
<path d="M66.3379 113.741C64.46 113.563 57.2397 115.147 51.7031 113.741" stroke="#151719" strokeWidth="2.43099" stroke-miterlimit="10"/>
</g>
<defs>
<clipPath id="clip0_579_12098">
<rect width="126" height="179.837" fill="white" transform="translate(0 0.454468)"/>
</clipPath>
</defs>
</svg>
