<svg width="108" height="257" viewBox="0 0 108 257" fill="none" xmlns="http://www.w3.org/2000/svg">
<g clip-path="url(#clip0_1268_3944)">
<path d="M54.1066 62.9978L51.8469 86.6201L43.4979 60.5748" stroke="black" stroke-width="2.46753" stroke-linecap="round"/>
<path d="M54.8356 61.0681L73.3118 57.3974L91.7879 53.7266C92.6878 50.4401 94.4409 43.0292 94.2539 39.6782C94.0669 36.3272 92.8791 25.9848 92.3086 21.2325L25.5344 12.0397L10.8808 55.8788L39.8425 60.1232" stroke="black" stroke-width="2.46753" stroke-linecap="round"/>
<rect x="50.0718" y="26.3154" width="3.78089" height="15.1706" rx="1.89045" fill="#FB2314"/>
<ellipse cx="51.9622" cy="47.1756" rx="1.89045" ry="1.89633" fill="#FB2314"/>
</g>
<g clip-path="url(#clip1_1268_3944)">
<path d="M54.4381 155.65C63.0136 147.283 83.2173 117.554 83.2173 117.554C83.2173 117.554 77.8472 107.664 75.0998 103.438H32.9716C30.0298 109.658 25.3396 117.845 26.0473 117.264C26.0473 117.264 44.5166 142.961 54.4381 155.65Z" fill="white" stroke="#151719" stroke-width="2.08371" stroke-linecap="round" stroke-linejoin="round"/>
<path d="M64.8119 117.68C61.5093 130.508 59.0532 142.629 54.9875 155.166C51.2826 141.728 48.3824 130.84 44.3306 117.223" fill="white"/>
<path d="M64.8119 117.68C61.5093 130.508 59.0532 142.629 54.9875 155.166C51.2826 141.728 48.3824 130.84 44.3306 117.223" stroke="#151719" stroke-width="2.08371" stroke-linecap="round" stroke-linejoin="round"/>
<path d="M74.6429 104.241C71.3404 108.369 68.0379 112.497 64.7353 116.625C61.7519 112.4 58.158 108.189 54.8971 104.171C51.206 108.244 47.7647 112.594 44.6009 117.068C41.2706 112.733 37.6628 108.313 34.3325 103.978" fill="white"/>
<path d="M74.6429 104.241C71.3404 108.369 68.0379 112.497 64.7353 116.625C61.7519 112.4 58.158 108.189 54.8971 104.171C51.206 108.244 47.7647 112.594 44.6009 117.068C41.2706 112.733 37.6628 108.313 34.3325 103.978" stroke="#151719" stroke-width="2.08371" stroke-linecap="round" stroke-linejoin="round"/>
<path d="M83.2212 117.665H26.9531" stroke="#151719" stroke-width="2.08371" stroke-linecap="round" stroke-linejoin="round"/>
<path d="M46.3593 228.155H35.7856V248.491H46.3593V228.155Z" fill="#151719"/>
<path d="M45.2464 248.493H31.4534C29.959 248.493 28.7476 249.703 28.7476 251.194V252.801C28.7476 254.293 29.959 255.503 31.4534 255.503H45.2464C46.7408 255.503 47.9522 254.293 47.9522 252.801V251.194C47.9522 249.703 46.7408 248.493 45.2464 248.493Z" fill="white" stroke="#151719" stroke-width="2.08371" stroke-linecap="round" stroke-linejoin="round"/>
<path d="M58.4395 248.493H69.0132V228.157H58.4395V248.493Z" fill="#151719"/>
<path d="M59.5661 255.501H73.3591C74.8535 255.501 76.0649 254.292 76.0649 252.8V251.193C76.0649 249.701 74.8535 248.491 73.3591 248.491H59.5661C58.0717 248.491 56.8603 249.701 56.8603 251.193V252.8C56.8603 254.292 58.0717 255.501 59.5661 255.501Z" fill="white" stroke="#151719" stroke-width="2.08371" stroke-linecap="round" stroke-linejoin="round"/>
<path d="M52.1704 233.573C80.2806 233.573 103.068 210.823 103.068 182.76C103.068 154.698 80.2806 131.948 52.1704 131.948C24.0603 131.948 1.27246 154.698 1.27246 182.76C1.27246 210.823 24.0603 233.573 52.1704 233.573Z" fill="#FF91C6" stroke="#151719" stroke-width="2.08371" stroke-miterlimit="10"/>
<path d="M94.1653 182.76C94.1653 205.922 75.363 224.692 52.162 224.692C28.961 224.692 10.1587 205.922 10.1587 182.76C10.1587 159.598 28.961 140.827 52.162 140.827C58.7532 140.827 64.9975 142.337 70.548 145.052C84.5352 151.854 94.1653 166.192 94.1653 182.76Z" fill="#FF91C6" stroke="#151719" stroke-width="2.08371" stroke-miterlimit="10"/>
<path d="M44.0634 163.073L40.7331 178.131L37.4167 163.073L34.0864 178.131L30.77 163.073" stroke="#151719" stroke-width="2.08371" stroke-linecap="round" stroke-linejoin="round"/>
<path d="M28.6606 168.49H46.1724" stroke="#151719" stroke-width="2.08371" stroke-linecap="round" stroke-linejoin="round"/>
<path d="M73.5678 163.073L70.2375 178.131L66.9211 163.073L63.5908 178.131L60.2744 163.073" stroke="#151719" stroke-width="2.08371" stroke-linecap="round" stroke-linejoin="round"/>
<path d="M58.165 168.49H75.6768" stroke="#151719" stroke-width="2.08371" stroke-linecap="round" stroke-linejoin="round"/>
<path d="M80.1718 188.896C80.1718 188.896 71.18 184.117 63.9366 189.367C55.9023 195.213 58.1641 205.215 58.1641 205.215" fill="#FF91C6"/>
<path d="M80.1718 188.896C80.1718 188.896 71.18 184.117 63.9366 189.367C55.9023 195.213 58.1641 205.215 58.1641 205.215" stroke="#151719" stroke-width="2.08371" stroke-miterlimit="10"/>
<path d="M76.0125 243.242C77.9136 243.699 79.9256 243.104 81.2716 241.677L101.031 220.62C103.085 218.432 102.974 214.982 100.782 212.932C98.5891 210.882 95.1339 210.993 93.0803 213.181L81.452 225.58L79.5093 207.668C79.1902 204.676 76.4982 202.515 73.5009 202.847C70.5037 203.166 68.339 205.853 68.672 208.845L71.8913 238.546C72.1272 240.665 73.5564 242.452 75.5824 243.117C75.735 243.173 75.8876 243.214 76.0264 243.242H76.0125Z" fill="#151719"/>
<path d="M80.7902 206.793C80.7902 206.793 83.3018 213.429 76.8909 215.451C71.7151 217.086 65.8455 208.899 67.0943 205.034C68.0518 202.028 72.2979 199.964 76.4469 201.723" fill="white"/>
<path d="M80.7902 206.793C80.7902 206.793 83.3018 213.429 76.8909 215.451C71.7151 217.086 65.8455 208.899 67.0943 205.034C68.0518 202.028 72.2979 199.964 76.4469 201.723" stroke="#151719" stroke-width="2.08371" stroke-linecap="round" stroke-linejoin="round"/>
<path d="M93.6294 199.466C93.6294 199.466 106.507 196.876 107.339 188.481C108.172 180.1 97.1262 185.253 94.4065 192.914" fill="white"/>
<path d="M93.6294 199.466C93.6294 199.466 106.507 196.876 107.339 188.481C108.172 180.1 97.1262 185.253 94.4065 192.914" stroke="#151719" stroke-width="2.08371" stroke-linecap="round" stroke-linejoin="round"/>
<path d="M73.5132 204.481C74.0127 201.059 76.2329 198.136 79.3551 196.654C80.4513 196.128 81.7695 195.643 83.2265 195.324C85.4745 194.839 88.0971 194.77 90.9001 195.643C90.9001 195.643 91.6633 190.282 93.4256 185.586C94.9242 181.61 97.1444 178.119 100.253 178.784C107.024 180.211 102.972 193.593 97.1721 199.937C97.1721 199.937 88.1665 211.477 77.6205 211.103" fill="white"/>
<path d="M73.5132 204.481C74.0127 201.059 76.2329 198.136 79.3551 196.654C80.4513 196.128 81.7695 195.643 83.2265 195.324C85.4745 194.839 88.0971 194.77 90.9001 195.643C90.9001 195.643 91.6633 190.282 93.4256 185.586C94.9242 181.61 97.1444 178.119 100.253 178.784C107.024 180.211 102.972 193.593 97.1721 199.937C97.1721 199.937 88.1665 211.477 77.6205 211.103" stroke="#151719" stroke-width="2.08371" stroke-linecap="round" stroke-linejoin="round"/>
<path d="M54.6395 180.751C54.6395 180.751 51.3509 177.315 48.0622 179.393C44.7874 181.471 44.3711 187.151 49.0474 188.605" stroke="#151719" stroke-width="2.08371" stroke-linecap="round" stroke-linejoin="round"/>
<path d="M56.861 199.467C55.2514 199.315 49.0626 200.672 44.3169 199.467H56.861Z" fill="#FF91C6"/>
<path d="M56.861 199.467C55.2514 199.315 49.0626 200.672 44.3169 199.467" stroke="#151719" stroke-width="2.08371" stroke-miterlimit="10"/>
</g>
<defs>
<clipPath id="clip0_1268_3944">
<rect width="95" height="86.3636" fill="white" transform="matrix(-1 0 0 1 101 0)"/>
</clipPath>
<clipPath id="clip1_1268_3944">
<rect width="108" height="154.146" fill="white" transform="translate(0 102.363)"/>
</clipPath>
</defs>
</svg>
