<svg width="current" height="current" viewBox="0 0 375 372" fill="none" xmlns="http://www.w3.org/2000/svg">
<g clip-path="url(#clip0_1691_4634)">
<path d="M104.69 22.2648C96.2467 33.3407 87.1131 47.1515 79.9143 75.0546C88.8819 70.9193 100.203 73.7878 113.412 81.6727C122.315 63.9685 131.726 54.159 138.862 40.2539C125.936 30.7701 114.562 24.8472 104.69 22.2648Z" fill="#FFF9EB"/>
<path d="M108.138 23.3475C99.8613 34.8169 90.6225 47.8692 83.0832 73.9721C84.359 73.6286 85.6722 73.4007 87.027 73.2819C94.9108 49.0429 104.235 36.759 112.331 24.8564C110.906 24.3003 109.51 23.7969 108.143 23.3463L108.138 23.3475Z" fill="#FFEFCC"/>
<path d="M104.69 22.2764C103.854 23.4253 103.011 24.5867 102.155 25.7671C103.301 26.1231 104.462 26.4972 105.642 26.91C106.483 25.7115 107.317 24.5307 108.138 23.3421C106.975 22.9577 105.825 22.608 104.69 22.2764Z" fill="#FFDF99"/>
<path d="M90.9356 44.1183C87.0096 52.1255 83.311 62.3314 79.9091 75.0819C80.9404 74.6384 81.9946 74.2705 83.078 73.9823C86.6324 62.055 90.4435 52.4763 94.419 44.8464C93.2361 44.5637 92.967 44.6084 91.8236 44.403L90.9356 44.1183Z" fill="#FFDF99"/>
<path d="M215.682 71.1603C203.847 75.9961 191.053 73.7866 177.85 66.9098C164.695 60.2381 151.135 48.8979 138.868 40.2552C131.728 54.1666 122.321 63.9698 113.418 81.674C125.977 88.8723 140.139 100.128 154.223 108.107C168.369 116.375 182.428 121.375 196.313 122.7C205.463 111.456 212.797 98.0607 215.687 71.1591L215.682 71.1603Z" fill="#FFF1D1"/>
<path d="M142.749 68.1378C138.407 77.9394 126.957 82.3718 117.173 78.0382C107.39 73.7047 102.979 62.2466 107.32 52.445C111.662 42.6435 123.112 38.2111 132.896 42.5446C142.679 46.8782 147.091 58.3363 142.749 68.1378Z" fill="#FFD475"/>
<path d="M126.407 59.3576C128.217 58.9237 129.254 58.5595 129.742 57.4577C130.23 56.356 129.741 55.2333 128.298 54.594C126.763 53.9143 125.46 54.6282 124.942 55.7987L120.955 54.033C122.42 50.7279 126.129 49.4059 129.841 51.0498C133.805 52.8056 135.044 56.0726 133.661 59.1951C132.908 60.894 131.484 61.8819 129.486 62.3702C127.234 62.9379 126.341 63.5305 125.771 64.8163L121.991 63.1419C122.998 60.8697 124.176 59.8803 126.407 59.359L126.407 59.3576ZM119.76 67.0654C120.38 65.6658 121.868 65.0896 123.265 65.7084C124.662 66.3272 125.236 67.8167 124.616 69.2163C123.996 70.616 122.517 71.1697 121.12 70.5509C119.723 69.932 119.14 68.465 119.76 67.0654Z" fill="#FFF1D1"/>
<mask id="mask0_1691_4634" style="mask-type:luminance" maskUnits="userSpaceOnUse" x="114" y="39" width="103" height="83">
<path d="M216.048 71.1836C204.252 75.8108 191.552 73.6119 178.438 66.6768C165.375 59.962 151.892 48.5121 139.701 39.7062C132.748 53.0238 123.707 62.9852 114.924 78.8962C127.381 86.5176 141.331 97.2282 155.302 105.536C169.337 114.121 183.301 119.478 197.082 121.097C205.97 110.313 213.064 97.0002 216.053 71.1824L216.048 71.1836Z" fill="white"/>
</mask>
<g mask="url(#mask0_1691_4634)">
<path d="M168.38 83.6854C171.625 83.8747 179.844 81.4997 179.792 81.366C179.793 81.3712 179.201 78.4143 178.82 77.0448C175.058 74.6912 171.297 72.1538 167.577 69.5636C166.244 70.2876 164.234 71.0059 164.47 71.0216C164.473 71.037 166.954 79.4798 168.38 83.6854Z" fill="white" stroke="#211F1F" stroke-width="0.702086" stroke-linecap="round" stroke-linejoin="round"/>
<path d="M174.81 78.2216C172.77 80.2371 170.94 82.107 168.574 83.6905C168.912 80.481 169.176 77.861 169.346 74.4149" fill="white"/>
<path d="M174.81 78.2216C172.77 80.2371 170.94 82.107 168.574 83.6905C168.912 80.481 169.176 77.861 169.346 74.4149" stroke="#211F1F" stroke-width="0.702086" stroke-linecap="round" stroke-linejoin="round"/>
<path d="M178.619 77.1246C177.387 77.4471 176.135 77.7311 174.878 77.9894C174.449 76.6037 173.859 75.099 173.338 73.6861C171.998 73.8715 170.686 74.1263 169.429 74.4331C168.936 72.9544 168.372 71.4055 167.881 69.9102" fill="white"/>
<path d="M178.619 77.1246C177.387 77.4471 176.135 77.7311 174.878 77.9894C174.449 76.6037 173.859 75.099 173.338 73.6861C171.998 73.8715 170.686 74.1263 169.429 74.4331C168.936 72.9544 168.372 71.4055 167.881 69.9102" stroke="#211F1F" stroke-width="0.702086" stroke-linecap="round" stroke-linejoin="round"/>
<path d="M179.781 81.3901C174.714 78.2693 169.65 74.7913 164.667 71.2676Z" fill="white"/>
<path d="M179.781 81.3901C174.714 78.2693 169.65 74.7913 164.667 71.2676" stroke="#211F1F" stroke-width="0.702086" stroke-linecap="round" stroke-linejoin="round"/>
<path d="M149.252 109.754C147.854 108.889 146.461 108.024 145.074 107.162C146.187 104.88 147.306 102.71 148.422 100.627C149.807 101.527 151.2 102.436 152.596 103.339C151.482 105.384 150.365 107.515 149.251 109.749L149.252 109.754Z" fill="black"/>
<path d="M147.651 111.844C145.829 110.737 144.013 109.629 142.216 108.538C141.632 108.182 141.36 107.473 141.607 106.951C141.693 106.764 141.784 106.576 141.872 106.393C142.119 105.877 142.788 105.755 143.373 106.116C145.169 107.229 146.985 108.359 148.807 109.487C149.399 109.853 149.684 110.548 149.436 111.043C149.347 111.22 149.26 111.402 149.171 111.579C148.925 112.079 148.245 112.198 147.655 111.838L147.651 111.844Z" fill="white" stroke="black" stroke-width="0.702086" stroke-linecap="round" stroke-linejoin="round"/>
<path d="M154.06 112.705C155.473 113.561 156.889 114.411 158.307 115.244C159.42 113.097 160.535 111.052 161.639 109.08C160.223 108.209 158.808 107.321 157.398 106.427C156.289 108.427 155.173 110.515 154.06 112.705Z" fill="black"/>
<path d="M153.358 115.277C155.204 116.373 157.052 117.452 158.91 118.507C159.513 118.848 160.199 118.733 160.444 118.255C160.534 118.083 160.619 117.912 160.71 117.746C160.952 117.274 160.665 116.617 160.061 116.271C158.205 115.199 156.357 114.098 154.513 112.986C153.916 112.621 153.231 112.72 152.988 113.208C152.899 113.386 152.811 113.563 152.722 113.74C152.474 114.234 152.765 114.928 153.359 115.282L153.358 115.277Z" fill="white" stroke="black" stroke-width="0.702086" stroke-linecap="round" stroke-linejoin="round"/>
<path d="M182.486 104.865C178.321 112.096 165.22 113.532 154.01 106.47C142.754 99.3535 138.027 86.3064 142.579 78.5809C147.154 70.8341 158.871 71.3056 169.697 78.7589C180.508 86.2643 186.655 97.5362 182.486 104.865Z" fill="#FFD475" stroke="black" stroke-width="0.702086" stroke-miterlimit="10"/>
<path d="M178.931 102.892C175.461 108.877 164.708 109.754 155.462 103.809C146.19 97.8431 142.18 87.1783 145.917 80.8725C149.67 74.5465 159.475 74.9687 168.465 81.1835C171.021 82.9465 173.247 84.9857 175.044 87.1295C179.575 92.5286 181.427 98.5575 178.931 102.892Z" fill="#FFD475" stroke="black" stroke-width="0.702086" stroke-miterlimit="10"/>
<path d="M162.06 84.8647C160.868 85.8744 159.658 86.8775 158.442 87.8984C158.795 86.2726 159.139 84.6544 159.472 83.0385C158.274 84.0444 157.066 85.0526 155.845 86.0797C156.202 84.4477 156.557 82.8271 156.901 81.2089" stroke="#060000" stroke-width="0.702086" stroke-linecap="round" stroke-linejoin="round"/>
<path d="M155.249 82.0449C157.498 83.6468 159.771 85.2593 162.058 86.8581" stroke="#060000" stroke-width="0.702086" stroke-linecap="round" stroke-linejoin="round"/>
<path d="M173.659 92.7101C172.486 93.7534 171.292 94.7798 170.088 95.8085C170.415 94.2104 170.731 92.6095 171.034 91.0007C169.858 92.0338 168.657 93.0511 167.446 94.0707C167.777 92.4663 168.102 90.8579 168.41 89.248" stroke="#060000" stroke-width="0.702086" stroke-linecap="round" stroke-linejoin="round"/>
<path d="M166.767 90.1162C169.067 91.6846 171.38 93.2123 173.698 94.6904" stroke="#060000" stroke-width="0.702086" stroke-linecap="round" stroke-linejoin="round"/>
<path d="M172.391 101.15C172.391 101.15 169.537 97.6574 165.833 97.1206C161.722 96.5268 161.015 99.8433 161.011 99.8496" fill="#FFD475"/>
<path d="M172.391 101.15C172.391 101.15 169.537 97.6574 165.833 97.1206C161.722 96.5268 161.015 99.8433 161.011 99.8496" stroke="black" stroke-width="0.702086" stroke-miterlimit="10"/>
<path d="M161.992 115.258C162.683 115.843 163.59 116.125 164.371 115.998C168.179 115.399 171.989 114.901 175.778 114.404C176.961 114.243 177.467 113.301 176.908 112.285C176.348 111.265 174.941 110.526 173.76 110.648C171.534 110.876 169.303 111.106 167.066 111.353C167.775 109.516 168.478 107.723 169.171 105.954C169.517 105.069 168.778 103.836 167.527 103.164C166.276 102.493 164.98 102.657 164.627 103.559C163.464 106.538 162.284 109.608 161.089 112.848C160.833 113.539 161.121 114.433 161.828 115.112C161.877 115.16 161.933 115.212 161.987 115.259L161.992 115.258Z" fill="black"/>
<path d="M169.827 106.041C169.827 106.041 169.777 108.439 166.874 107.442C164.526 106.63 163.497 102.856 164.614 102.128C165.482 101.561 167.509 102.107 168.888 103.613" fill="white"/>
<path d="M169.827 106.041C169.827 106.041 169.777 108.439 166.874 107.442C164.526 106.63 163.497 102.856 164.614 102.128C165.482 101.561 167.509 102.107 168.888 103.613" stroke="black" stroke-width="0.702086" stroke-linecap="round" stroke-linejoin="round"/>
<path d="M176.152 107.151C176.149 107.184 181.738 109.337 183.34 107.277C184.93 105.279 179.756 104.266 177.486 105.612" fill="white"/>
<path d="M176.152 107.151C176.149 107.184 181.738 109.337 183.34 107.277C184.93 105.279 179.756 104.266 177.486 105.612" stroke="black" stroke-width="0.702086" stroke-linecap="round" stroke-linejoin="round"/>
<path d="M167.274 103.619C168.019 102.825 169.369 102.616 170.855 102.996C171.377 103.129 171.984 103.323 172.618 103.593C173.601 104.013 174.66 104.622 175.647 105.506C175.647 105.506 176.789 104.281 178.203 103.462C179.409 102.768 180.811 102.363 181.952 103.211C184.445 105.054 180.834 107.697 177.496 108.064C177.505 108.056 172.054 109.117 167.863 106.425" fill="white"/>
<path d="M167.274 103.619C168.019 102.825 169.369 102.616 170.855 102.996C171.377 103.129 171.984 103.323 172.618 103.593C173.601 104.013 174.66 104.622 175.647 105.506C175.647 105.506 176.789 104.281 178.203 103.462C179.409 102.768 180.811 102.363 181.952 103.211C184.445 105.054 180.834 107.697 177.496 108.064C177.505 108.056 172.054 109.117 167.863 106.425" stroke="black" stroke-width="0.702086" stroke-linecap="round" stroke-linejoin="round"/>
<path d="M163.498 92.3768C163.498 92.3768 162.729 90.5894 161.114 90.2391C159.505 89.8876 158.442 91.2888 160.056 92.9458" stroke="black" stroke-width="0.702086" stroke-linecap="round" stroke-linejoin="round"/>
<path d="M161.418 97.9507C160.803 97.4829 158.131 96.2002 156.453 94.5957Z" fill="#FF76C7"/>
<path d="M161.418 97.9507C160.803 97.4829 158.131 96.2002 156.453 94.5957" stroke="black" stroke-width="0.702086" stroke-miterlimit="10"/>
</g>
<path d="M197.79 120.769C183.906 119.286 170.034 113.84 155.894 105.457C141.818 97.3516 127.48 86.3082 114.898 78.8504C114.405 79.7744 113.91 80.7149 113.419 81.6759C125.978 88.8743 140.14 100.129 154.224 108.109C168.37 116.377 182.429 121.377 196.314 122.702C196.813 122.058 197.308 121.42 197.796 120.772L197.79 120.769Z" fill="#FFDF99"/>
<path d="M215.682 71.1581C203.847 75.9939 191.053 73.7844 177.85 66.9076C164.694 60.2358 151.134 48.8956 138.867 40.2529C138.479 41.0231 138.076 41.7802 137.671 42.5272C150 51.2743 163.618 62.7253 176.866 69.6565C190.163 76.7978 203.084 79.4204 215.148 75.4117C215.334 74.0242 215.514 72.6059 215.682 71.1581Z" fill="#FFDF99"/>
<path d="M80.1385 74.9382C85.5595 48.5124 98.8031 28.9096 104.747 22.4114C112.852 23.1802 137.047 38.4845 139.784 40.9743C143.942 43.3759 165.806 62.1016 183.894 69.6902C198.364 75.761 211.02 73.428 215.539 71.5027L214.98 77.3967C213.486 97.5343 201.786 115.916 196.122 122.589C177.928 122.566 150.088 106.328 137.981 97.5973C125.874 88.8664 108.241 78.0501 98.3112 74.5807C90.3674 71.8051 82.8861 73.6625 80.1385 74.9382Z" stroke="black" stroke-width="0.661738"/>
<path d="M87.1546 73.0693C88.9944 67.5198 93.7047 54.6453 97.8279 47.5432C101.951 40.4411 109.013 29.4251 112.028 24.8048" stroke="black" stroke-width="0.702086"/>
<path d="M91.0733 44.3049L94.5818 44.935M102.188 25.8827L105.521 26.7936M108.081 23.3195C102.973 30.6653 92.1199 47.3777 89.5689 55.4615C86.3862 63.307 84.0139 70.9172 83.2256 73.7416" stroke="black" stroke-width="0.702086"/>
</g>
<g clip-path="url(#clip1_1691_4634)">
<path d="M215.046 140.493C219.362 157.381 225.827 177.071 247.627 205.805C250.531 193.791 262.138 184.906 280.136 178.063C269.67 155.576 267.349 138.722 259.24 120.92C239.894 126.243 225.248 132.808 215.046 140.493Z" fill="#FFE0F0"/>
<path d="M218.772 137.918C223.603 154.948 229.241 174.153 249.01 201.823C249.664 200.304 250.46 198.838 251.395 197.416C233.724 170.855 228.906 152.163 223.509 134.974C221.857 135.94 220.279 136.92 218.774 137.912L218.772 137.918Z" fill="#FFB8DC"/>
<path d="M215.046 140.473C215.525 142.185 216.01 143.915 216.504 145.672C217.744 144.823 219.012 143.974 220.334 143.136C219.811 141.38 219.299 139.645 218.77 137.916C217.489 138.759 216.253 139.616 215.046 140.473Z" fill="#FFA3D2"/>
<path d="M225.794 170.932C230.605 181.003 237.752 192.559 247.626 205.799C247.992 204.443 248.449 203.122 249.008 201.835C240.06 189.084 233.616 177.905 229.214 168.078C228.018 169.02 227.853 169.318 226.763 170.281L225.794 170.932Z" fill="#FFA3D2"/>
<path d="M349.23 69.5114C344.787 84.8831 332.683 95.7254 315.68 103.345C298.915 111.078 277.254 115.582 259.244 120.912C267.356 138.723 269.674 155.569 280.14 178.055C296.958 171.317 319.003 166.157 337.773 158.528C356.874 151.064 372.699 141.145 384.783 128.545C380.849 110.833 373.396 93.2318 349.233 69.5054L349.23 69.5114Z" fill="#FFCCE6"/>
<path d="M289.629 138.749C295.879 150.622 291.339 165.303 279.488 171.542C267.636 177.78 252.964 173.212 246.714 161.339C240.464 149.466 245.004 134.785 256.855 128.547C268.706 122.309 283.379 126.876 289.629 138.749Z" fill="#FFA3D2"/>
<path d="M268.316 147.973C269.296 145.859 269.744 144.558 269.041 143.224C268.339 141.889 266.857 141.498 265.108 142.418C263.249 143.397 262.939 145.23 263.685 146.648L258.856 149.189C256.749 145.186 258.332 140.518 262.827 138.151C267.629 135.624 271.798 136.944 273.789 140.727C274.873 142.785 274.736 144.95 273.664 147.29C272.473 149.941 272.361 151.278 273.181 152.836L268.602 155.246C267.153 152.494 267.097 150.569 268.317 147.974L268.316 147.973ZM270.721 160.483C269.828 158.788 270.418 156.879 272.111 155.988C273.803 155.098 275.71 155.691 276.603 157.387C277.495 159.082 276.891 160.963 275.198 161.854C273.506 162.745 271.613 162.179 270.721 160.483Z" fill="#FFEBF4"/>
<mask id="mask1_1691_4634" style="mask-type:luminance" maskUnits="userSpaceOnUse" x="259" y="69" width="125" height="106">
<path d="M349.54 69.1616C344.922 84.334 332.902 95.092 315.911 102.579C299.175 110.187 277.466 114.531 259.355 119.659C267.029 136.826 269.786 153.435 278.585 174.412C295.74 168.103 317.085 162.727 336.09 155.465C355.416 148.355 371.517 138.807 383.808 126.539C380.124 109.439 372.565 92.1379 349.543 69.1557L349.54 69.1616Z" fill="white"/>
</mask>
<g mask="url(#mask1_1691_4634)">
<path d="M324.788 125.658C327.494 122.619 331.545 112.707 331.373 112.655C331.379 112.658 328.017 110.942 326.376 110.253C321.145 112.118 315.733 113.84 310.302 115.479C309.977 117.351 309.122 119.881 309.32 119.662C309.338 119.67 319.552 123.791 324.788 125.658Z" fill="white" stroke="#211F1F" stroke-width="0.878741" stroke-linecap="round" stroke-linejoin="round"/>
<path d="M324.417 115.104C324.812 118.671 325.226 121.919 324.943 125.471C322.055 122.647 319.688 120.354 316.437 117.511" fill="white"/>
<path d="M324.417 115.104C324.812 118.671 325.226 121.919 324.943 125.471C322.055 122.647 319.688 120.354 316.437 117.511" stroke="#211F1F" stroke-width="0.878741" stroke-linecap="round" stroke-linejoin="round"/>
<path d="M326.304 110.518C325.664 111.978 324.971 113.427 324.248 114.862C322.555 114.206 320.619 113.618 318.828 113.032C317.97 114.491 317.201 115.977 316.525 117.449C314.691 116.785 312.733 116.135 310.884 115.456" fill="white"/>
<path d="M326.304 110.518C325.664 111.978 324.971 113.427 324.248 114.862C322.555 114.206 320.619 113.618 318.828 113.032C317.97 114.491 317.201 115.977 316.525 117.449C314.691 116.785 312.733 116.135 310.884 115.456" stroke="#211F1F" stroke-width="0.878741" stroke-linecap="round" stroke-linejoin="round"/>
<path d="M331.39 112.682C324.391 115.233 317.045 117.503 309.717 119.657Z" fill="white"/>
<path d="M331.39 112.682C324.391 115.233 317.045 117.503 309.717 119.657" stroke="#211F1F" stroke-width="0.878741" stroke-linecap="round" stroke-linejoin="round"/>
<path d="M335.531 164.681C333.596 165.383 331.664 166.078 329.741 166.77C328.366 163.905 327.104 161.122 325.927 158.409C327.886 157.748 329.86 157.087 331.83 156.418C332.972 159.099 334.197 161.85 335.525 164.678L335.531 164.681Z" fill="black"/>
<path d="M336.333 167.87C333.832 168.798 331.334 169.721 328.868 170.637C328.064 170.934 327.157 170.65 326.837 170.003C326.72 169.773 326.606 169.537 326.495 169.31C326.181 168.666 326.58 167.915 327.389 167.621C329.876 166.722 332.395 165.817 334.917 164.905C335.736 164.608 336.64 164.868 336.933 165.495C337.038 165.719 337.149 165.947 337.254 166.171C337.553 166.801 337.142 167.561 336.33 167.861L336.333 167.87Z" fill="white" stroke="black" stroke-width="0.878741" stroke-linecap="round" stroke-linejoin="round"/>
<path d="M342.16 162.25C344.097 161.528 346.031 160.797 347.95 160.052C346.706 157.292 345.565 154.61 344.486 151.995C342.532 152.709 340.562 153.408 338.588 154.098C339.691 156.74 340.874 159.456 342.16 162.25Z" fill="black"/>
<path d="M344.136 164.938C346.645 163.977 349.139 163.001 351.618 161.997C352.421 161.67 352.841 160.907 352.562 160.295C352.463 160.073 352.361 159.857 352.268 159.638C351.993 159.035 351.125 158.806 350.317 159.13C347.823 160.12 345.308 161.078 342.783 162.025C341.962 162.328 341.528 163.077 341.818 163.695C341.923 163.92 342.028 164.144 342.133 164.369C342.426 164.995 343.333 165.25 344.142 164.941L344.136 164.938Z" fill="white" stroke="black" stroke-width="0.878741" stroke-linecap="round" stroke-linejoin="round"/>
<path d="M356.532 128.257C360.396 137.96 351.632 151.935 335.995 157.455C320.269 162.977 303.79 157.486 299.742 147.018C295.69 136.512 305.252 125.377 320.975 120.538C336.737 115.754 352.575 118.473 356.532 128.257Z" fill="#FF91C6" stroke="black" stroke-width="0.878741" stroke-miterlimit="10"/>
<path d="M351.833 130.218C355.014 138.272 347.525 149.507 334.509 153.966C321.452 158.435 307.87 154.089 304.581 145.525C301.286 136.929 309.315 127.632 322.396 123.634C326.112 122.494 329.842 121.892 333.342 121.793C342.16 121.538 349.517 124.401 351.833 130.218Z" fill="#FF91C6" stroke="black" stroke-width="0.878741" stroke-miterlimit="10"/>
<path d="M321.037 132.771C321.103 134.725 321.148 136.692 321.206 138.678C319.884 137.069 318.563 135.475 317.236 133.893C317.293 135.85 317.344 137.819 317.405 139.814C316.08 138.197 314.764 136.591 313.443 134.996" stroke="#060000" stroke-width="0.878741" stroke-linecap="round" stroke-linejoin="round"/>
<path d="M312.987 137.275C316.306 136.312 319.654 135.332 322.999 134.33" stroke="#060000" stroke-width="0.878741" stroke-linecap="round" stroke-linejoin="round"/>
<path d="M337.756 127.491C337.869 129.453 337.95 131.421 338.025 133.402C336.71 131.84 335.384 130.287 334.04 128.74C334.141 130.697 334.207 132.665 334.267 134.646C332.95 133.075 331.623 131.508 330.282 129.955" stroke="#060000" stroke-width="0.878741" stroke-linecap="round" stroke-linejoin="round"/>
<path d="M329.845 132.234C333.171 131.194 336.467 130.11 339.717 128.982" stroke="#060000" stroke-width="0.878741" stroke-linecap="round" stroke-linejoin="round"/>
<path d="M345.049 135.285C345.049 135.285 339.405 135.375 336.002 138.593C332.227 142.167 334.933 145.437 334.936 145.446" fill="#FF91C6"/>
<path d="M345.049 135.285C345.049 135.285 339.405 135.375 336.002 138.593C332.227 142.167 334.933 145.437 334.936 145.446" stroke="black" stroke-width="0.878741" stroke-miterlimit="10"/>
<path d="M350.821 156.446C351.932 156.222 352.913 155.55 353.395 154.686C355.764 150.482 358.234 146.356 360.687 142.251C361.449 140.965 360.916 139.737 359.485 139.496C358.049 139.254 356.231 140.061 355.434 141.315C353.93 143.677 352.423 146.045 350.928 148.434C349.675 146.311 348.461 144.228 347.262 142.175C346.663 141.148 344.879 140.915 343.248 141.622C341.616 142.329 340.772 143.728 341.383 144.775C343.405 148.23 345.501 151.772 347.754 155.461C348.233 156.249 349.335 156.661 350.551 156.493C350.636 156.483 350.73 156.469 350.818 156.452L350.821 156.446Z" fill="black"/>
<path d="M347.856 141.593C347.856 141.593 350.171 143.504 346.937 145.579C344.317 147.253 339.814 145.332 339.966 143.671C340.083 142.379 342.193 140.813 344.743 140.629" fill="white"/>
<path d="M347.856 141.593C347.856 141.593 350.171 143.504 346.937 145.579C344.317 147.253 339.814 145.332 339.966 143.671C340.083 142.379 342.193 140.813 344.743 140.629" stroke="black" stroke-width="0.878741" stroke-linecap="round" stroke-linejoin="round"/>
<path d="M353.851 136.248C353.881 136.277 360.334 132.463 359.556 129.29C358.829 126.178 353.818 130.471 353.376 133.743" fill="white"/>
<path d="M353.851 136.248C353.881 136.277 360.334 132.463 359.556 129.29C358.829 126.178 353.818 130.471 353.376 133.743" stroke="black" stroke-width="0.878741" stroke-linecap="round" stroke-linejoin="round"/>
<path d="M343.493 142.223C343.293 140.875 344.135 139.387 345.662 138.224C346.198 137.815 346.86 137.37 347.617 136.956C348.793 136.319 350.212 135.752 351.847 135.469C351.847 135.469 351.531 133.397 351.826 131.373C352.081 129.651 352.772 127.96 354.491 127.499C358.236 126.482 358.026 132.079 355.794 135.641C355.794 135.626 352.602 141.8 346.705 143.823" fill="white"/>
<path d="M343.493 142.223C343.293 140.875 344.135 139.387 345.662 138.224C346.198 137.815 346.86 137.37 347.617 136.956C348.793 136.319 350.212 135.752 351.847 135.469C351.847 135.469 351.531 133.397 351.826 131.373C352.081 129.651 352.772 127.96 354.491 127.499C358.236 126.482 358.026 132.079 355.794 135.641C355.794 135.626 352.602 141.8 346.705 143.823" stroke="black" stroke-width="0.878741" stroke-linecap="round" stroke-linejoin="round"/>
<path d="M329.524 137.193C329.524 137.193 327.172 136.56 325.575 137.873C323.98 139.18 324.53 141.312 327.409 141.014" stroke="black" stroke-width="0.878741" stroke-linecap="round" stroke-linejoin="round"/>
<path d="M333.384 143.569C332.447 143.81 329.113 145.437 326.235 145.838Z" fill="#FF76C7"/>
<path d="M333.384 143.569C332.447 143.81 329.113 145.437 326.235 145.838" stroke="black" stroke-width="0.878741" stroke-miterlimit="10"/>
</g>
<path d="M384.035 125.595C371.799 138.072 355.681 147.459 336.472 154.829C317.585 162.351 295.611 167.85 278.52 174.408C279.044 175.61 279.582 176.827 280.145 178.055C296.963 171.316 319.008 166.156 337.778 158.527C356.879 151.063 372.704 141.144 384.788 128.544C384.543 127.554 384.301 126.573 384.044 125.592L384.035 125.595Z" fill="#FFA3D2"/>
<path d="M349.23 69.5128C344.787 84.8846 332.683 95.7269 315.68 103.347C298.915 111.079 277.254 115.584 259.244 120.913C259.698 121.893 260.129 122.876 260.548 123.854C278.708 118.544 300.523 114.069 317.614 106.447C334.95 98.9412 347.558 88.2942 352.991 73.3399C351.774 72.0791 350.521 70.8014 349.23 69.5128Z" fill="#FFA3D2"/>
<path d="M247.678 205.486C225.948 179.644 216.989 151.422 215.226 140.542C222.274 133.183 256.086 121.318 260.656 120.565C266.242 118.348 301.601 111.428 323.096 99.5663C340.292 90.0766 347.83 75.8423 349.449 69.9114L354.8 75.0371C373.408 92.1411 382.366 117.9 384.519 128.641C370.367 146.482 332.809 161.2 314.837 166.304C296.866 171.408 272.556 180.317 261.439 187.37C252.546 193.012 248.56 201.798 247.678 205.486Z" stroke="black" stroke-width="0.828241"/>
<path d="M251.299 197.149C247.28 191.034 238.3 176.412 234.53 166.85C230.76 157.288 225.43 141.802 223.236 135.255" stroke="black" stroke-width="0.878741"/>
<path d="M226.1 170.964L229.443 168.009M216.648 145.749L220.13 143.184M218.708 137.974C221.952 148.692 229.929 172.322 235.884 181.104C241.114 190.32 246.742 198.558 248.902 201.525" stroke="black" stroke-width="0.878741"/>
</g>
<g clip-path="url(#clip2_1691_4634)">
<path d="M46.4803 109.759C25.8879 130.952 3.14783 157.732 -19.0871 214.687C0.85168 208.248 23.9733 217.159 49.802 237.117C73.043 202.077 95.3529 183.797 113.908 156.313C89.0822 133.059 66.6234 117.701 46.4803 109.759Z" fill="#DDF3E9"/>
<path d="M53.4735 112.866C33.1323 134.93 10.3629 160.085 -12.1333 213.162C-9.35875 212.762 -6.53447 212.614 -3.65057 212.707C19.099 163.644 41.8546 140.129 61.924 117.107C59.0644 115.574 56.2513 114.16 53.4846 112.865L53.4735 112.866Z" fill="#B7E6D1"/>
<path d="M46.4803 109.742C44.4284 111.951 42.3568 114.184 40.2554 116.453C42.5791 117.494 44.9299 118.576 47.3124 119.745C49.3868 117.433 51.4426 115.157 53.4738 112.861C51.1207 111.756 48.787 110.728 46.4803 109.742Z" fill="#8BD5B2"/>
<path d="M11.9759 152.255C1.67647 168.128 -8.70084 188.69 -19.098 214.688C-16.8131 214.015 -14.4992 213.507 -12.1439 213.175C-1.63414 188.95 8.82144 169.737 19.1294 154.671C16.7091 153.776 16.1311 153.802 13.7742 153.08L11.9759 152.255Z" fill="#8BD5B2"/>
<path d="M267.903 240.875C241.748 248.063 215.357 240.167 189.286 222.335C163.262 204.948 137.571 177.623 113.919 156.308C95.354 183.805 73.0541 202.072 49.8131 237.112C74.4464 255.458 101.426 282.756 129.074 303.134C156.778 324.135 185.129 338.23 214.043 344.54C236.166 323.171 255.011 296.812 267.915 240.874L267.903 240.875Z" fill="#B0E3CB"/>
<path d="M115.03 216.028C103.4 235.576 78.1566 242.012 58.6449 230.404C39.1332 218.796 32.744 193.541 44.3737 173.994C56.0035 154.446 81.2471 148.01 100.759 159.618C120.271 171.226 126.66 196.481 115.03 216.028Z" fill="#65C899"/>
<path d="M82.8334 193.38C86.7556 192.924 89.0328 192.42 90.34 190.223C91.6472 188.025 90.901 185.536 88.0225 183.824C84.9622 182.003 82.0368 183.177 80.6479 185.512L72.6977 180.782C76.6193 174.19 84.7693 172.345 92.1711 176.749C100.077 181.452 101.859 188.648 98.1542 194.875C96.1384 198.264 92.8879 199.984 88.5548 200.506C83.668 201.131 81.6358 202.154 80.1102 204.718L72.5713 200.233C75.2674 195.701 78 193.916 82.8317 193.383L82.8334 193.38ZM66.8768 207.933C68.5375 205.141 71.8191 204.305 74.6053 205.962C77.3915 207.62 78.2221 210.903 76.5614 213.694C74.9007 216.485 71.6458 217.277 68.8596 215.62C66.0734 213.962 65.2162 210.724 66.8768 207.933Z" fill="#B0E3CB"/>
<mask id="mask2_1691_4634" style="mask-type:luminance" maskUnits="userSpaceOnUse" x="53" y="155" width="216" height="187">
<path d="M268.671 241.019C242.648 247.778 216.453 239.928 190.584 221.996C164.767 204.541 139.266 177.005 115.815 155.365C97.7937 181.658 76.2241 200.352 53.6902 231.644C78.0016 250.856 104.673 276.953 131.999 297.994C159.39 319.635 187.449 334.457 216.068 341.361C237.525 320.894 255.843 294.648 268.682 241.018L268.671 241.019Z" fill="white"/>
</mask>
<g mask="url(#mask2_1691_4634)">
<path d="M165.089 255.248C171.877 256.469 189.793 253.548 189.717 253.253C189.718 253.265 189.221 246.886 188.764 243.904C181.436 237.993 174.155 231.695 166.976 225.296C163.984 226.483 159.568 227.487 160.061 227.58C160.064 227.613 163.151 246.027 165.089 255.248Z" fill="white" stroke="#211F1F" stroke-width="1.48966" stroke-linecap="round" stroke-linejoin="round"/>
<path d="M180.019 245.361C175.213 249.09 170.884 252.566 165.499 255.302C167.024 248.626 168.243 243.174 169.474 235.958" fill="white"/>
<path d="M180.019 245.361C175.213 249.09 170.884 252.566 165.499 255.302C167.024 248.626 168.243 243.174 169.474 235.958" stroke="#211F1F" stroke-width="1.48966" stroke-linecap="round" stroke-linejoin="round"/>
<path d="M188.318 244.032C185.641 244.399 182.932 244.68 180.217 244.906C179.666 241.878 178.803 238.558 178.064 235.45C175.195 235.501 172.366 235.706 169.64 236.033C168.976 232.793 168.182 229.388 167.525 226.113" fill="white"/>
<path d="M188.318 244.032C185.641 244.399 182.932 244.68 180.217 244.906C179.666 241.878 178.803 238.558 178.064 235.45C175.195 235.501 172.366 235.706 169.64 236.033C168.976 232.793 168.182 229.388 167.525 226.113" stroke="#211F1F" stroke-width="1.48966" stroke-linecap="round" stroke-linejoin="round"/>
<path d="M189.688 253.308C179.803 245.45 170.017 236.84 160.413 228.155Z" fill="white"/>
<path d="M189.688 253.308C179.803 245.45 170.017 236.84 160.413 228.155" stroke="#211F1F" stroke-width="1.48966" stroke-linecap="round" stroke-linejoin="round"/>
<path d="M118.188 305.326C115.461 303.151 112.745 300.974 110.042 298.807C112.967 294.282 115.872 289.995 118.752 285.89C121.442 288.137 124.145 290.405 126.858 292.66C123.992 296.685 121.1 300.892 118.187 305.315L118.188 305.326Z" fill="black"/>
<path d="M114.286 309.313C110.729 306.52 107.184 303.725 103.676 300.972C102.535 300.073 102.142 298.51 102.794 297.475C103.023 297.102 103.263 296.728 103.493 296.366C104.146 295.342 105.585 295.254 106.727 296.163C110.229 298.963 113.768 301.803 117.319 304.641C118.473 305.561 118.897 307.098 118.251 308.077C118.019 308.427 117.789 308.789 117.557 309.14C116.912 310.13 115.45 310.209 114.296 309.301L114.286 309.313Z" fill="white" stroke="black" stroke-width="1.48966" stroke-linecap="round" stroke-linejoin="round"/>
<path d="M127.569 312.758C130.328 314.918 133.097 317.067 135.873 319.181C138.761 314.94 141.627 310.915 144.453 307.041C141.691 304.847 138.936 302.618 136.191 300.377C133.348 304.31 130.469 308.426 127.569 312.758Z" fill="black"/>
<path d="M125.439 318.002C129.05 320.778 132.668 323.52 136.316 326.214C137.499 327.085 138.973 327.016 139.612 326.071C139.845 325.732 140.066 325.394 140.301 325.065C140.93 324.133 140.492 322.676 139.308 321.793C135.668 319.065 132.056 316.278 128.452 313.467C127.286 312.549 125.82 312.584 125.183 313.551C124.951 313.901 124.72 314.252 124.488 314.602C123.842 315.581 124.277 317.117 125.44 318.013L125.439 318.002Z" fill="white" stroke="black" stroke-width="1.48966" stroke-linecap="round" stroke-linejoin="round"/>
<path d="M189.438 303.442C178.833 317.619 150.87 317.324 129.044 299.607C107.137 281.764 100.484 253.081 112.032 237.96C123.632 222.8 148.195 226.762 169.112 245.206C189.984 263.756 200.078 289.059 189.438 303.442Z" fill="#65C899" stroke="black" stroke-width="1.48966" stroke-miterlimit="10"/>
<path d="M182.449 298.379C173.622 310.108 150.75 309.23 132.778 294.364C114.757 279.447 109.013 255.965 118.481 243.628C127.991 231.253 148.539 234.627 165.902 249.996C170.841 254.358 175.014 259.218 178.255 264.189C186.432 276.71 188.807 289.88 182.449 298.379Z" fill="#65C899" stroke="black" stroke-width="1.48966" stroke-miterlimit="10"/>
<path d="M151.476 256.126C148.71 257.951 145.907 259.758 143.086 261.6C144.242 258.265 145.376 254.943 146.489 251.624C143.71 253.439 140.909 255.257 138.078 257.111C139.243 253.764 140.4 250.44 141.535 247.118" stroke="#060000" stroke-width="1.48966" stroke-linecap="round" stroke-linejoin="round"/>
<path d="M137.842 248.474C142.174 252.419 146.554 256.391 150.965 260.339" stroke="#060000" stroke-width="1.48966" stroke-linecap="round" stroke-linejoin="round"/>
<path d="M173.921 275.618C171.184 277.519 168.41 279.379 165.614 281.241C166.708 277.957 167.778 274.665 168.824 271.352C166.085 273.231 163.298 275.069 160.488 276.91C161.592 273.614 162.683 270.309 163.74 266.995" stroke="#060000" stroke-width="1.48966" stroke-linecap="round" stroke-linejoin="round"/>
<path d="M160.062 268.374C164.511 272.261 168.996 276.065 173.504 279.766" stroke="#060000" stroke-width="1.48966" stroke-linecap="round" stroke-linejoin="round"/>
<path d="M169.111 293.056C169.111 293.056 163.985 284.977 156.319 282.908C147.809 280.615 145.479 287.422 145.469 287.435" fill="#65C899"/>
<path d="M169.111 293.056C169.111 293.056 163.985 284.977 156.319 282.908C147.809 280.615 145.479 287.422 145.469 287.435" stroke="black" stroke-width="1.48966" stroke-miterlimit="10"/>
<path d="M143.631 320.142C144.939 321.551 146.779 322.374 148.456 322.305C156.63 322.007 164.782 321.924 172.889 321.836C175.422 321.798 176.726 319.94 175.806 317.659C174.886 315.368 172.109 313.456 169.589 313.413C164.843 313.33 160.085 313.248 155.309 313.202C157.269 309.511 159.204 305.912 161.111 302.361C162.065 300.586 160.821 297.801 158.356 296.069C155.89 294.337 153.119 294.355 152.147 296.166C148.942 302.147 145.678 308.314 142.34 314.837C141.626 316.228 142.005 318.185 143.324 319.794C143.415 319.908 143.518 320.031 143.62 320.144L143.631 320.142Z" fill="black"/>
<path d="M162.474 302.71C162.474 302.71 161.76 307.749 155.897 304.912C151.158 302.606 149.946 294.396 152.483 293.145C154.455 292.169 158.586 293.834 161.11 297.356" fill="white"/>
<path d="M162.474 302.71C162.474 302.71 161.76 307.749 155.897 304.912C151.158 302.606 149.946 294.396 152.483 293.145C154.455 292.169 158.586 293.834 161.11 297.356" stroke="black" stroke-width="1.48966" stroke-linecap="round" stroke-linejoin="round"/>
<path d="M175.516 306.638C175.501 306.707 186.729 312.657 190.627 308.723C194.482 304.917 183.839 301.474 178.717 303.733" fill="white"/>
<path d="M175.516 306.638C175.501 306.707 186.729 312.657 190.627 308.723C194.482 304.917 183.839 301.474 178.717 303.733" stroke="black" stroke-width="1.48966" stroke-linecap="round" stroke-linejoin="round"/>
<path d="M157.71 296.955C159.481 295.473 162.377 295.373 165.412 296.55C166.478 296.963 167.706 297.526 168.975 298.254C170.938 299.389 173.014 300.939 174.87 303.051C174.87 303.051 177.586 300.76 180.773 299.395C183.488 298.237 186.544 297.739 188.733 299.816C193.519 304.329 185.242 308.982 178.117 308.909C178.138 308.895 166.387 309.748 158.24 303.015" fill="white"/>
<path d="M157.71 296.955C159.481 295.473 162.377 295.373 165.412 296.55C166.478 296.963 167.706 297.526 168.975 298.254C170.938 299.389 173.014 300.939 174.87 303.051C174.87 303.051 177.586 300.76 180.773 299.395C183.488 298.237 186.544 297.739 188.733 299.816C193.519 304.329 185.242 308.982 178.117 308.909C178.138 308.895 166.387 309.748 158.24 303.015" stroke="black" stroke-width="1.48966" stroke-linecap="round" stroke-linejoin="round"/>
<path d="M152.604 272.313C152.604 272.313 151.435 268.353 148.124 267.206C144.823 266.058 142.227 268.74 145.207 272.639" stroke="black" stroke-width="1.48966" stroke-linecap="round" stroke-linejoin="round"/>
<path d="M146.811 283.53C145.632 282.388 140.328 279.009 137.201 275.204Z" fill="#FF76C7"/>
<path d="M146.811 283.53C145.632 282.388 140.328 279.009 137.201 275.204" stroke="black" stroke-width="1.48966" stroke-miterlimit="10"/>
</g>
<path d="M217.642 340.846C188.771 334.206 160.928 319.218 133.265 297.977C105.668 277.335 78.2613 250.439 53.647 231.54C52.3728 233.362 51.0912 235.217 49.8143 237.118C74.4477 255.464 101.428 282.762 129.076 303.14C156.779 324.141 185.13 338.236 214.045 344.546C215.259 343.315 216.463 342.096 217.654 340.856L217.642 340.846Z" fill="#8BD5B2"/>
<path d="M267.904 240.876C241.748 248.064 215.357 240.168 189.286 222.336C163.263 204.948 137.571 177.624 113.92 156.309C112.905 157.833 111.865 159.326 110.823 160.797C134.578 182.347 160.364 209.92 186.516 227.878C212.717 246.29 239.273 255.089 265.702 249.701C266.447 246.825 267.184 243.883 267.904 240.876Z" fill="#8BD5B2"/>
<path d="M-18.5832 214.477C-0.467445 160.183 32.3981 122.243 46.5665 110.06C63.4442 113.733 110.535 152.104 115.671 158.042C123.822 164.155 165.134 209.142 201.315 229.71C230.26 246.166 257.512 244.458 267.519 241.547L264.848 253.821C256.598 295.864 227.293 331.621 213.672 344.245C175.351 339.586 120.816 298.326 97.5247 276.866C74.2331 255.406 39.8283 228.153 19.7897 218.328C3.75883 210.469 -12.4718 212.486 -18.5832 214.477Z" stroke="black" stroke-width="1.40405"/>
<path d="M-3.3319 212.337C1.94993 201.113 15.1349 175.185 25.6201 161.269C36.1053 147.352 53.7725 125.935 61.2954 116.966" stroke="black" stroke-width="1.48966"/>
<path d="M12.2122 152.724L19.4435 154.94M40.2935 116.732L47.0843 119.495M53.3569 112.826C40.7359 127.006 13.6383 159.462 6.21605 175.845C-2.47632 191.566 -9.40203 206.996 -11.7783 212.746" stroke="black" stroke-width="1.48966"/>
</g>
<defs>
<clipPath id="clip0_1691_4634">
<rect width="136.113" height="120.255" fill="white" transform="matrix(0.974309 -0.225215 0.225224 0.974307 67.0186 30.6543)"/>
</clipPath>
<clipPath id="clip1_1691_4634">
<rect width="170.358" height="150.515" fill="white" transform="matrix(0.427859 -0.903846 0.903853 0.427844 194.019 183.976)"/>
</clipPath>
<clipPath id="clip2_1691_4634">
<rect width="288.798" height="255.152" fill="white" transform="matrix(0.994232 -0.107255 0.107259 0.994231 -35 117.869)"/>
</clipPath>
</defs>
</svg>
