<svg width="158" height="257" viewBox="0 0 158 257" fill="none" xmlns="http://www.w3.org/2000/svg">
<path d="M102.3 78.7014C102.489 62.2419 93.1949 13.7252 93.1949 13.7252C93.1949 13.7252 78.3652 9.32074 71.5901 7.87951L30.6971 48.7725C33.8893 57.6758 37.2971 70.1888 37.4183 68.9361C37.4183 68.9361 80.3317 75.9941 102.3 78.7014Z" fill="white" stroke="#151719" stroke-width="2.85728" stroke-linecap="round" stroke-linejoin="round"/>
<path d="M75.4405 31.7203C84.7074 47.3987 94.109 61.5684 102.352 77.7047C85.6907 68.2358 72.2887 60.4639 55.1152 51.1566" fill="white"/>
<path d="M75.4405 31.7203C84.7074 47.3987 94.109 61.5684 102.352 77.7047C85.6907 68.2358 72.2887 60.4639 55.1152 51.1566" stroke="#151719" stroke-width="2.85728" stroke-linecap="round" stroke-linejoin="round"/>
<path d="M71.9274 9.10532C72.7356 16.3249 73.5437 23.5445 74.3519 30.7641C67.3478 29.5518 59.7646 28.9457 52.6931 28.2049C53.0703 35.7477 53.9593 43.3175 55.2389 50.7391C47.7903 49.7559 39.9915 48.9612 32.543 47.9779" fill="white"/>
<path d="M71.9274 9.10532C72.7356 16.3249 73.5437 23.5445 74.3519 30.7641C67.3478 29.5518 59.7646 28.9457 52.6931 28.2049C53.0703 35.7477 53.9593 43.3175 55.2389 50.7391C47.7903 49.7559 39.9915 48.9612 32.543 47.9779" stroke="#151719" stroke-width="2.85728" stroke-linecap="round" stroke-linejoin="round"/>
<path d="M93.3038 13.8332L38.6855 68.4515" stroke="#151719" stroke-width="2.85728" stroke-linecap="round" stroke-linejoin="round"/>
<path d="M114.65 166.966C114.65 166.966 91.2807 194.161 82.4178 197.717C73.555 201.273 82.7815 223.996 97.1264 220.507C111.471 217.018 125.587 190.053 129.049 181.419C132.51 172.785 114.637 166.953 114.637 166.953L114.65 166.966Z" fill="#151719"/>
<path d="M164.959 157.039L154.695 167.303L174.468 187.076L184.732 176.812L164.959 157.039Z" fill="#151719"/>
<path d="M175.856 156.676C203.142 129.39 203.141 85.1506 175.856 57.8646C148.57 30.5786 104.33 30.5786 77.0443 57.8646C49.7583 85.1506 49.7583 129.39 77.0443 156.676C104.33 183.962 148.57 183.962 175.856 156.676Z" fill="#FF91C6" stroke="#151719" stroke-width="2.85728" stroke-miterlimit="10"/>
<path d="M167.223 66.4985C189.744 89.0193 189.744 125.521 167.223 148.042C144.703 170.563 108.201 170.563 85.68 148.042C63.1592 125.521 63.1592 89.0193 85.68 66.4985C92.0779 60.1005 99.6073 55.5075 107.635 52.7597C127.826 45.7961 151.114 50.3891 167.223 66.4985Z" fill="#FF91C6" stroke="#151719" stroke-width="2.85728" stroke-miterlimit="10"/>
<path d="M99.4447 95.996L110.853 113.87L92.9928 102.448L104.401 120.322L86.541 108.9" stroke="#151719" stroke-width="2.85728" stroke-linecap="round" stroke-linejoin="round"/>
<path d="M89.7598 116.214L106.758 99.2154" stroke="#151719" stroke-width="2.85728" stroke-linecap="round" stroke-linejoin="round"/>
<path d="M128.081 67.3601L139.49 85.234L121.63 73.812L133.038 91.6858L115.178 80.2638" stroke="#151719" stroke-width="2.85728" stroke-linecap="round" stroke-linejoin="round"/>
<path d="M118.395 87.5776L135.393 70.5793" stroke="#151719" stroke-width="2.85728" stroke-linecap="round" stroke-linejoin="round"/>
<path d="M159.597 86.0558C159.597 86.0558 146.222 90.137 144.296 102.273C142.181 115.756 154.101 123.285 154.101 123.285" fill="#FF91C6"/>
<path d="M159.597 86.0558C159.597 86.0558 146.222 90.137 144.296 102.273C142.181 115.756 154.101 123.285 154.101 123.285" stroke="#151719" stroke-width="2.85728" stroke-miterlimit="10"/>
<path d="M177.607 102.852C177.607 102.852 186.497 106.866 182.24 115.055C178.806 121.669 165.148 119.406 162.602 114.436C160.609 110.583 162.723 104.455 168.461 102.138" fill="white"/>
<path d="M177.607 102.852C177.607 102.852 186.497 106.866 182.24 115.055C178.806 121.669 165.148 119.406 162.602 114.436C160.609 110.583 162.723 104.455 168.461 102.138" stroke="#151719" stroke-width="2.85728" stroke-linecap="round" stroke-linejoin="round"/>
<path d="M168.286 107.674C165.444 103.862 164.757 98.8651 166.346 94.3933C166.899 92.8174 167.707 91.0663 168.811 89.3423C170.522 86.6888 173 84.0757 176.57 82.2035C176.57 82.2035 172.098 76.25 169.242 69.9733C166.831 64.6529 165.592 59.1035 169.256 56.7329C177.216 51.5472 186.294 68.4917 186.833 80.2909C186.833 80.2909 189.312 100.252 178.711 110.125" fill="white"/>
<path d="M168.286 107.674C165.444 103.862 164.757 98.8651 166.346 94.3933C166.899 92.8174 167.707 91.0663 168.811 89.3423C170.522 86.6888 173 84.0757 176.57 82.2035C176.57 82.2035 172.098 76.25 169.242 69.9733C166.831 64.6529 165.592 59.1035 169.256 56.7329C177.216 51.5472 186.294 68.4917 186.833 80.2909C186.833 80.2909 189.312 100.252 178.711 110.125" stroke="#151719" stroke-width="2.85728" stroke-linecap="round" stroke-linejoin="round"/>
<path d="M64.9361 134.141C62.4982 133.562 60.0467 133.939 57.9725 134.99C56.9623 134.114 55.7365 133.454 54.3627 133.131C50.7394 132.283 47.1027 133.926 45.2708 136.943C44.3684 136.391 43.3717 135.96 42.2806 135.704C36.7851 134.411 31.2896 137.832 29.9966 143.327C29.8484 143.934 29.7811 144.54 29.7541 145.132C29.6868 145.119 29.6464 145.105 29.5925 145.078C25.0803 144.014 20.5411 146.829 19.477 151.342C18.9248 153.699 19.4366 156.043 20.6623 157.915C19.0864 159.06 17.9146 160.743 17.4297 162.791C16.5946 166.32 18.1435 169.862 21.0125 171.734C20.0023 172.933 19.248 174.361 18.8709 175.977C17.6991 180.974 20.4199 185.958 25.0533 187.79C25.0399 187.83 25.0264 187.871 25.0129 187.911C23.9488 192.423 26.7639 196.962 31.2762 198.027C32.8386 198.404 34.4011 198.296 35.8288 197.811C36.6909 201.475 39.5329 204.532 43.439 205.448C46.9949 206.283 50.5374 205.138 52.9618 202.741C54.3088 205.138 56.612 206.984 59.5079 207.671C63.5622 208.627 67.63 207.011 69.9871 203.872C71.0781 204.99 72.4655 205.812 74.0953 206.202C77.0855 206.903 80.0757 205.906 82.0691 203.832C83.1063 204.788 84.3859 205.502 85.8675 205.852C89.0463 206.607 92.2116 205.435 94.1916 203.104C94.8516 203.468 95.5789 203.764 96.3601 203.953C99.7409 204.748 103.122 203.387 105.061 200.747C105.56 201.057 106.112 201.313 106.732 201.448C108.833 201.933 110.921 201.138 112.2 199.562C112.51 200.869 113.534 201.946 114.921 202.283C116.187 202.579 117.44 202.189 118.302 201.353C118.84 203.158 120.309 204.626 122.275 205.084C122.841 205.219 123.393 205.26 123.932 205.206C124.067 208.573 126.693 211.388 130.141 211.684C133.886 212.008 137.172 209.233 137.482 205.502C137.509 205.206 137.509 204.936 137.496 204.653C138.681 203.926 139.597 202.741 139.947 201.259C140.27 199.858 140.028 198.458 139.368 197.313C140.041 196.72 140.513 195.898 140.607 194.915C140.769 193.353 139.88 191.817 138.438 191.184C137.428 190.74 136.364 190.78 135.475 191.184C134.465 190.389 133.226 189.878 131.852 189.743C131.542 189.729 131.232 189.716 130.936 189.743C129.858 187.911 127.932 186.604 125.656 186.402C123.824 186.241 123.11 187.009 121.278 186.335C121.144 186.281 120.996 186.214 120.888 186.133C120.16 185.487 119.932 184.746 120.08 183.789C120.214 182.981 120.255 182.187 119.81 181.446C118.948 179.964 116.941 179.439 115.406 179.089C115.258 179.048 115.109 179.035 114.948 179.008C114.584 176.3 112.604 173.97 109.789 173.31C109.547 173.256 109.291 173.216 109.048 173.189C108.846 169.566 106.287 166.36 102.583 165.485C102.516 165.471 102.435 165.471 102.354 165.444C102.354 161.619 99.7544 158.157 95.8752 157.241C95.4442 157.134 95.0132 157.08 94.5822 157.053C94.205 152.769 91.1475 149.038 86.743 148.001C85.5173 147.718 84.2781 147.665 83.0928 147.826C83.7528 143.529 81.0051 139.381 76.7083 138.371C74.8496 137.94 73.0043 138.169 71.3879 138.869C70.0275 136.566 67.7512 134.801 64.9361 134.141Z" fill="#FFA346" stroke="#151719" stroke-width="2.85728" stroke-linecap="round" stroke-linejoin="round"/>
<path d="M34.2806 158.683C32.368 156.581 32.4623 153.362 34.4961 151.49C36.5435 149.631 39.7492 149.82 41.6753 151.934" stroke="#E36F27" stroke-width="2.85728" stroke-linecap="round" stroke-linejoin="round"/>
<path d="M42.9952 160.447C41.8907 159.073 42.0793 157.107 43.4263 156.029C44.7597 154.965 46.7263 155.207 47.8307 156.581" stroke="#E36F27" stroke-width="2.85728" stroke-linecap="round" stroke-linejoin="round"/>
<path d="M57.6622 154.372C57.0965 152.702 57.9451 150.911 59.5749 150.358C61.1912 149.82 62.9557 150.722 63.5214 152.392" stroke="#E36F27" stroke-width="2.85728" stroke-linecap="round" stroke-linejoin="round"/>
<path d="M68.249 146.237C68.6262 144.513 70.2964 143.435 71.9531 143.799C73.6233 144.176 74.6604 145.86 74.2833 147.584" stroke="#E36F27" stroke-width="2.85728" stroke-linecap="round" stroke-linejoin="round"/>
<path d="M98.6624 175.492C99.8477 174.199 101.828 174.051 103.094 175.209C104.346 176.354 104.427 178.348 103.242 179.641" stroke="#E36F27" stroke-width="2.85728" stroke-linecap="round" stroke-linejoin="round"/>
<path d="M39.3041 191.13C36.516 191.737 33.7952 190.012 33.216 187.305C32.6368 184.598 34.4417 181.931 37.2164 181.338" stroke="#E36F27" stroke-width="2.85728" stroke-linecap="round" stroke-linejoin="round"/>
<path d="M87.4162 198.081C85.9076 199.589 83.4966 199.63 82.0285 198.161C80.5603 196.693 80.6007 194.282 82.1093 192.774" stroke="#E36F27" stroke-width="2.85728" stroke-linecap="round" stroke-linejoin="round"/>
<path d="M103.81 193.487C104.457 194.915 103.851 196.572 102.477 197.191C101.103 197.811 99.4596 197.164 98.8266 195.75" stroke="#E36F27" stroke-width="2.85728" stroke-linecap="round" stroke-linejoin="round"/>
<path d="M34.24 174.671C32.5294 175.034 30.8322 173.984 30.482 172.313C30.1318 170.643 31.2363 169 32.9604 168.623" stroke="#E36F27" stroke-width="2.85728" stroke-linecap="round" stroke-linejoin="round"/>
<path d="M94.1908 203.104C99.2957 211.954 99.0667 221.638 93.7059 224.736C88.3451 227.834 79.8594 223.147 74.7545 214.298C69.6497 205.448 69.8786 195.764 75.2394 192.666C80.6002 189.568 89.0859 194.255 94.1908 203.104Z" fill="white" stroke="#151719" stroke-width="2.85728" stroke-linecap="round" stroke-linejoin="round"/>
<path d="M126.897 102.92C126.897 102.92 120.364 102.772 119.192 107.984C118.034 113.183 123.152 119.11 129.106 115.985" stroke="#151719" stroke-width="2.85728" stroke-linecap="round" stroke-linejoin="round"/>
<path d="M147.249 118.961C145.538 120.376 140.851 127.703 135.072 131.138L147.249 118.961Z" fill="#FF91C6"/>
<path d="M147.249 118.961C145.538 120.376 140.851 127.703 135.072 131.138" stroke="#151719" stroke-width="2.85728" stroke-miterlimit="10"/>
</svg>
